<svg xmlns="http://www.w3.org/2000/svg" xmlns:xlink="http://www.w3.org/1999/xlink" width="500" zoomAndPan="magnify" viewBox="0 0 375 374.999991" height="500" preserveAspectRatio="xMidYMid meet" version="1.0"><defs><g/></defs><rect x="-37.5" width="450" fill="rgb(100%, 100%, 100%)" y="-37.499999" height="449.999989" fill-opacity="1"/><rect x="-37.5" width="450" fill="rgb(0%, 12.548828%, 9.408569%)" y="-37.499999" height="449.999989" fill-opacity="1"/><rect x="-37.5" width="450" fill="rgb(100%, 100%, 100%)" y="-37.499999" height="449.999989" fill-opacity="1"/><rect x="-37.5" width="450" fill="rgb(0%, 12.548828%, 9.408569%)" y="-37.499999" height="449.999989" fill-opacity="1"/><g fill="rgb(100%, 100%, 100%)" fill-opacity="0.302"><g transform="translate(31.696218, 229.53133)"><g><path d="M 41.085938 -53.421875 L 41.085938 -52.980469 C 45.050781 -51.660156 49.566406 -49.675781 45.492188 -40.203125 L 33.15625 -11.785156 L 19.9375 -40.203125 C 15.53125 -49.675781 20.15625 -52.320312 25.664062 -52.980469 L 25.664062 -53.421875 L 2.753906 -53.421875 L 6.828125 -45.929688 L 28.859375 1.101562 L 29.410156 1.101562 L 47.582031 -40.09375 C 51.769531 -49.566406 54.300781 -51.660156 57.828125 -52.980469 L 57.828125 -53.421875 Z M 41.085938 -53.421875 "/></g></g></g><g fill="rgb(100%, 100%, 100%)" fill-opacity="0.302"><g transform="translate(98.106923, 229.53133)"><g><path d="M 55.292969 -11.015625 C 51.878906 -6.277344 42.847656 -4.074219 37.007812 -4.074219 C 23.792969 -4.074219 15.199219 -15.53125 15.089844 -30.621094 L 46.59375 -30.621094 C 60.359375 -30.621094 57.828125 -54.082031 34.917969 -54.082031 C 18.945312 -54.082031 4.40625 -43.179688 4.40625 -25.445312 C 4.40625 -8.8125 16.960938 0.769531 32.273438 0.769531 C 43.617188 0.769531 52.539062 -4.40625 55.84375 -10.574219 Z M 30.953125 -52.101562 C 45.269531 -52.101562 48.90625 -32.824219 42.1875 -32.714844 L 15.089844 -32.382812 C 15.640625 -44.828125 22.03125 -52.101562 30.953125 -52.101562 Z M 30.953125 -52.101562 "/></g></g></g><g fill="rgb(100%, 100%, 100%)" fill-opacity="0.302"><g transform="translate(163.636564, 229.53133)"><g><path d="M 17.953125 -10.683594 L 17.953125 -79.96875 L 18.503906 -84.261719 L -1.101562 -75.011719 L -1.101562 -74.347656 C 5.726562 -76.441406 7.820312 -76.992188 7.820312 -72.585938 L 7.820312 -6.828125 L 6.828125 0 L 24.234375 0 L 24.234375 -0.441406 C 18.726562 -1.652344 17.953125 -4.738281 17.953125 -10.683594 Z M 17.953125 -10.683594 "/></g></g></g><g fill="rgb(100%, 100%, 100%)" fill-opacity="0.302"><g transform="translate(195.906227, 229.53133)"><g><path d="M 41.085938 -53.421875 L 41.085938 -52.980469 C 45.050781 -51.660156 49.566406 -49.675781 45.492188 -40.203125 L 33.15625 -11.785156 L 19.9375 -40.203125 C 15.53125 -49.675781 20.15625 -52.320312 25.664062 -52.980469 L 25.664062 -53.421875 L 2.753906 -53.421875 L 6.828125 -45.929688 L 28.859375 1.101562 L 29.410156 1.101562 L 47.582031 -40.09375 C 51.769531 -49.566406 54.300781 -51.660156 57.828125 -52.980469 L 57.828125 -53.421875 Z M 41.085938 -53.421875 "/></g></g></g><g fill="rgb(100%, 100%, 100%)" fill-opacity="0.302"><g transform="translate(262.316923, 229.53133)"><g><path d="M 55.292969 -11.015625 C 51.878906 -6.277344 42.847656 -4.074219 37.007812 -4.074219 C 23.792969 -4.074219 15.199219 -15.53125 15.089844 -30.621094 L 46.59375 -30.621094 C 60.359375 -30.621094 57.828125 -54.082031 34.917969 -54.082031 C 18.945312 -54.082031 4.40625 -43.179688 4.40625 -25.445312 C 4.40625 -8.8125 16.960938 0.769531 32.273438 0.769531 C 43.617188 0.769531 52.539062 -4.40625 55.84375 -10.574219 Z M 30.953125 -52.101562 C 45.269531 -52.101562 48.90625 -32.824219 42.1875 -32.714844 L 15.089844 -32.382812 C 15.640625 -44.828125 22.03125 -52.101562 30.953125 -52.101562 Z M 30.953125 -52.101562 "/></g></g></g><g fill="rgb(100%, 100%, 100%)" fill-opacity="0.302"><g transform="translate(327.846557, 229.53133)"><g><path d="M 16.523438 1.761719 L 18.835938 1.761719 L 32.164062 -1.984375 L 32.164062 -2.421875 L 18.835938 -1.984375 L 18.835938 -50.777344 L 31.613281 -50.777344 L 32.164062 -53.421875 L 18.835938 -53.421875 L 18.835938 -67.628906 L 19.714844 -72.148438 L -0.550781 -62.785156 L -0.550781 -62.125 C 6.609375 -64.214844 8.703125 -64.65625 8.703125 -60.03125 L 8.703125 -7.601562 L 8.371094 -0.992188 Z M 16.523438 1.761719 "/></g></g></g><g fill="rgb(100%, 100%, 100%)" fill-opacity="0.502"><g transform="translate(26.828345, 224.663455)"><g><path d="M 41.085938 -53.421875 L 41.085938 -52.980469 C 45.050781 -51.660156 49.566406 -49.675781 45.492188 -40.203125 L 33.15625 -11.785156 L 19.9375 -40.203125 C 15.53125 -49.675781 20.15625 -52.320312 25.664062 -52.980469 L 25.664062 -53.421875 L 2.753906 -53.421875 L 6.828125 -45.929688 L 28.859375 1.101562 L 29.410156 1.101562 L 47.582031 -40.09375 C 51.769531 -49.566406 54.300781 -51.660156 57.828125 -52.980469 L 57.828125 -53.421875 Z M 41.085938 -53.421875 "/></g></g></g><g fill="rgb(100%, 100%, 100%)" fill-opacity="0.502"><g transform="translate(93.23905, 224.663455)"><g><path d="M 55.292969 -11.015625 C 51.878906 -6.277344 42.847656 -4.074219 37.007812 -4.074219 C 23.792969 -4.074219 15.199219 -15.53125 15.089844 -30.621094 L 46.59375 -30.621094 C 60.359375 -30.621094 57.828125 -54.082031 34.917969 -54.082031 C 18.945312 -54.082031 4.40625 -43.179688 4.40625 -25.445312 C 4.40625 -8.8125 16.960938 0.769531 32.273438 0.769531 C 43.617188 0.769531 52.539062 -4.40625 55.84375 -10.574219 Z M 30.953125 -52.101562 C 45.269531 -52.101562 48.90625 -32.824219 42.1875 -32.714844 L 15.089844 -32.382812 C 15.640625 -44.828125 22.03125 -52.101562 30.953125 -52.101562 Z M 30.953125 -52.101562 "/></g></g></g><g fill="rgb(100%, 100%, 100%)" fill-opacity="0.502"><g transform="translate(158.76869, 224.663455)"><g><path d="M 17.953125 -10.683594 L 17.953125 -79.96875 L 18.503906 -84.261719 L -1.101562 -75.011719 L -1.101562 -74.347656 C 5.726562 -76.441406 7.820312 -76.992188 7.820312 -72.585938 L 7.820312 -6.828125 L 6.828125 0 L 24.234375 0 L 24.234375 -0.441406 C 18.726562 -1.652344 17.953125 -4.738281 17.953125 -10.683594 Z M 17.953125 -10.683594 "/></g></g></g><g fill="rgb(100%, 100%, 100%)" fill-opacity="0.502"><g transform="translate(191.038353, 224.663455)"><g><path d="M 41.085938 -53.421875 L 41.085938 -52.980469 C 45.050781 -51.660156 49.566406 -49.675781 45.492188 -40.203125 L 33.15625 -11.785156 L 19.9375 -40.203125 C 15.53125 -49.675781 20.15625 -52.320312 25.664062 -52.980469 L 25.664062 -53.421875 L 2.753906 -53.421875 L 6.828125 -45.929688 L 28.859375 1.101562 L 29.410156 1.101562 L 47.582031 -40.09375 C 51.769531 -49.566406 54.300781 -51.660156 57.828125 -52.980469 L 57.828125 -53.421875 Z M 41.085938 -53.421875 "/></g></g></g><g fill="rgb(100%, 100%, 100%)" fill-opacity="0.502"><g transform="translate(257.44905, 224.663455)"><g><path d="M 55.292969 -11.015625 C 51.878906 -6.277344 42.847656 -4.074219 37.007812 -4.074219 C 23.792969 -4.074219 15.199219 -15.53125 15.089844 -30.621094 L 46.59375 -30.621094 C 60.359375 -30.621094 57.828125 -54.082031 34.917969 -54.082031 C 18.945312 -54.082031 4.40625 -43.179688 4.40625 -25.445312 C 4.40625 -8.8125 16.960938 0.769531 32.273438 0.769531 C 43.617188 0.769531 52.539062 -4.40625 55.84375 -10.574219 Z M 30.953125 -52.101562 C 45.269531 -52.101562 48.90625 -32.824219 42.1875 -32.714844 L 15.089844 -32.382812 C 15.640625 -44.828125 22.03125 -52.101562 30.953125 -52.101562 Z M 30.953125 -52.101562 "/></g></g></g><g fill="rgb(100%, 100%, 100%)" fill-opacity="0.502"><g transform="translate(322.978684, 224.663455)"><g><path d="M 16.523438 1.761719 L 18.835938 1.761719 L 32.164062 -1.984375 L 32.164062 -2.421875 L 18.835938 -1.984375 L 18.835938 -50.777344 L 31.613281 -50.777344 L 32.164062 -53.421875 L 18.835938 -53.421875 L 18.835938 -67.628906 L 19.714844 -72.148438 L -0.550781 -62.785156 L -0.550781 -62.125 C 6.609375 -64.214844 8.703125 -64.65625 8.703125 -60.03125 L 8.703125 -7.601562 L 8.371094 -0.992188 Z M 16.523438 1.761719 "/></g></g></g><g fill="rgb(100%, 100%, 100%)" fill-opacity="1"><g transform="translate(21.960472, 219.795584)"><g><path d="M 41.085938 -53.421875 L 41.085938 -52.980469 C 45.050781 -51.660156 49.566406 -49.675781 45.492188 -40.203125 L 33.15625 -11.785156 L 19.9375 -40.203125 C 15.53125 -49.675781 20.15625 -52.320312 25.664062 -52.980469 L 25.664062 -53.421875 L 2.753906 -53.421875 L 6.828125 -45.929688 L 28.859375 1.101562 L 29.410156 1.101562 L 47.582031 -40.09375 C 51.769531 -49.566406 54.300781 -51.660156 57.828125 -52.980469 L 57.828125 -53.421875 Z M 41.085938 -53.421875 "/></g></g></g><g fill="rgb(100%, 100%, 100%)" fill-opacity="1"><g transform="translate(88.371176, 219.795584)"><g><path d="M 55.292969 -11.015625 C 51.878906 -6.277344 42.847656 -4.074219 37.007812 -4.074219 C 23.792969 -4.074219 15.199219 -15.53125 15.089844 -30.621094 L 46.59375 -30.621094 C 60.359375 -30.621094 57.828125 -54.082031 34.917969 -54.082031 C 18.945312 -54.082031 4.40625 -43.179688 4.40625 -25.445312 C 4.40625 -8.8125 16.960938 0.769531 32.273438 0.769531 C 43.617188 0.769531 52.539062 -4.40625 55.84375 -10.574219 Z M 30.953125 -52.101562 C 45.269531 -52.101562 48.90625 -32.824219 42.1875 -32.714844 L 15.089844 -32.382812 C 15.640625 -44.828125 22.03125 -52.101562 30.953125 -52.101562 Z M 30.953125 -52.101562 "/></g></g></g><g fill="rgb(100%, 100%, 100%)" fill-opacity="1"><g transform="translate(153.900817, 219.795584)"><g><path d="M 17.953125 -10.683594 L 17.953125 -79.96875 L 18.503906 -84.261719 L -1.101562 -75.011719 L -1.101562 -74.347656 C 5.726562 -76.441406 7.820312 -76.992188 7.820312 -72.585938 L 7.820312 -6.828125 L 6.828125 0 L 24.234375 0 L 24.234375 -0.441406 C 18.726562 -1.652344 17.953125 -4.738281 17.953125 -10.683594 Z M 17.953125 -10.683594 "/></g></g></g><g fill="rgb(100%, 100%, 100%)" fill-opacity="1"><g transform="translate(186.17048, 219.795584)"><g><path d="M 41.085938 -53.421875 L 41.085938 -52.980469 C 45.050781 -51.660156 49.566406 -49.675781 45.492188 -40.203125 L 33.15625 -11.785156 L 19.9375 -40.203125 C 15.53125 -49.675781 20.15625 -52.320312 25.664062 -52.980469 L 25.664062 -53.421875 L 2.753906 -53.421875 L 6.828125 -45.929688 L 28.859375 1.101562 L 29.410156 1.101562 L 47.582031 -40.09375 C 51.769531 -49.566406 54.300781 -51.660156 57.828125 -52.980469 L 57.828125 -53.421875 Z M 41.085938 -53.421875 "/></g></g></g><g fill="rgb(100%, 100%, 100%)" fill-opacity="1"><g transform="translate(252.581177, 219.795584)"><g><path d="M 55.292969 -11.015625 C 51.878906 -6.277344 42.847656 -4.074219 37.007812 -4.074219 C 23.792969 -4.074219 15.199219 -15.53125 15.089844 -30.621094 L 46.59375 -30.621094 C 60.359375 -30.621094 57.828125 -54.082031 34.917969 -54.082031 C 18.945312 -54.082031 4.40625 -43.179688 4.40625 -25.445312 C 4.40625 -8.8125 16.960938 0.769531 32.273438 0.769531 C 43.617188 0.769531 52.539062 -4.40625 55.84375 -10.574219 Z M 30.953125 -52.101562 C 45.269531 -52.101562 48.90625 -32.824219 42.1875 -32.714844 L 15.089844 -32.382812 C 15.640625 -44.828125 22.03125 -52.101562 30.953125 -52.101562 Z M 30.953125 -52.101562 "/></g></g></g><g fill="rgb(100%, 100%, 100%)" fill-opacity="1"><g transform="translate(318.11081, 219.795584)"><g><path d="M 16.523438 1.761719 L 18.835938 1.761719 L 32.164062 -1.984375 L 32.164062 -2.421875 L 18.835938 -1.984375 L 18.835938 -50.777344 L 31.613281 -50.777344 L 32.164062 -53.421875 L 18.835938 -53.421875 L 18.835938 -67.628906 L 19.714844 -72.148438 L -0.550781 -62.785156 L -0.550781 -62.125 C 6.609375 -64.214844 8.703125 -64.65625 8.703125 -60.03125 L 8.703125 -7.601562 L 8.371094 -0.992188 Z M 16.523438 1.761719 "/></g></g></g></svg>