<svg width="203" height="22" viewBox="0 0 203 22" fill="none" xmlns="http://www.w3.org/2000/svg">
<rect x="30" width="143" height="22" rx="11" fill="#34A853"/>
<path d="M45.0099 9.18111H43.6817C43.6439 8.9633 43.574 8.77036 43.4722 8.60227C43.3704 8.43182 43.2438 8.28741 43.0922 8.16903C42.9407 8.05066 42.7679 7.96188 42.5738 7.9027C42.382 7.84115 42.1749 7.81037 41.9523 7.81037C41.557 7.81037 41.2066 7.9098 40.9012 8.10866C40.5958 8.30516 40.3567 8.59399 40.1839 8.97514C40.011 9.35393 39.9246 9.81676 39.9246 10.3636C39.9246 10.92 40.011 11.3887 40.1839 11.7699C40.359 12.1487 40.5982 12.4351 40.9012 12.6293C41.2066 12.821 41.5558 12.9169 41.9488 12.9169C42.1666 12.9169 42.3702 12.8885 42.5596 12.8317C42.7513 12.7725 42.923 12.6861 43.0745 12.5724C43.2284 12.4588 43.3574 12.3191 43.4616 12.1534C43.5681 11.9877 43.6415 11.7983 43.6817 11.5852L45.0099 11.5923C44.9601 11.938 44.8524 12.2623 44.6867 12.5653C44.5233 12.8684 44.3091 13.1359 44.0439 13.3679C43.7788 13.5975 43.4687 13.7775 43.1135 13.9077C42.7584 14.0355 42.3643 14.0994 41.931 14.0994C41.2918 14.0994 40.7213 13.9515 40.2194 13.6555C39.7175 13.3596 39.3221 12.9323 39.0333 12.3736C38.7445 11.8149 38.6001 11.1449 38.6001 10.3636C38.6001 9.58002 38.7456 8.91004 39.0368 8.35369C39.328 7.79498 39.7246 7.36766 40.2265 7.07173C40.7284 6.7758 41.2965 6.62784 41.931 6.62784C42.3358 6.62784 42.7123 6.68466 43.0603 6.7983C43.4083 6.91193 43.7184 7.07884 43.9907 7.29901C44.2629 7.51681 44.4867 7.78433 44.6618 8.10156C44.8394 8.41643 44.9554 8.77628 45.0099 9.18111ZM46.2164 14V6.72727H47.5338V9.80611H50.9039V6.72727H52.2249V14H50.9039V10.9105H47.5338V14H46.2164ZM54.5917 14H53.1855L55.7458 6.72727H57.3722L59.9362 14H58.5299L56.5874 8.21875H56.5306L54.5917 14ZM54.6379 11.1484H58.4731V12.2067H54.6379V11.1484ZM66.8707 6.72727V14H65.6988L62.2719 9.04616H62.2116V14H60.8941V6.72727H62.0731L65.4964 11.6847H65.5603V6.72727H66.8707ZM73.1784 9.04972C73.1192 8.85795 73.0375 8.68632 72.9333 8.5348C72.8315 8.38092 72.7084 8.24953 72.564 8.14062C72.422 8.03172 72.2586 7.95005 72.074 7.8956C71.8893 7.83878 71.6881 7.81037 71.4703 7.81037C71.0796 7.81037 70.7316 7.90862 70.4262 8.10511C70.1208 8.30161 69.8805 8.59044 69.7053 8.97159C69.5325 9.35038 69.4461 9.81203 69.4461 10.3565C69.4461 10.9058 69.5325 11.371 69.7053 11.7521C69.8782 12.1333 70.1185 12.4233 70.4262 12.6222C70.734 12.8187 71.0915 12.9169 71.4987 12.9169C71.868 12.9169 72.1876 12.8459 72.4575 12.7038C72.7297 12.5618 72.9392 12.3606 73.086 12.1001C73.2328 11.8374 73.3062 11.5296 73.3062 11.1768L73.6045 11.223H71.6301V10.1932H74.5811V11.0668C74.5811 11.6894 74.4485 12.228 74.1833 12.6825C73.9182 13.1371 73.5536 13.4875 73.0896 13.7337C72.6256 13.9775 72.0929 14.0994 71.4916 14.0994C70.8216 14.0994 70.2333 13.9491 69.7267 13.6484C69.2224 13.3454 68.8282 12.9157 68.5441 12.3594C68.2624 11.8007 68.1215 11.1378 68.1215 10.3707C68.1215 9.78362 68.2044 9.25923 68.3701 8.79759C68.5382 8.33594 68.7726 7.94413 69.0732 7.62216C69.3739 7.29782 69.7267 7.05161 70.1315 6.88352C70.5363 6.71307 70.9767 6.62784 71.4525 6.62784C71.855 6.62784 72.2302 6.68703 72.5782 6.8054C72.9262 6.9214 73.2352 7.08712 73.5051 7.30256C73.7773 7.51799 74.001 7.77367 74.1762 8.0696C74.3514 8.36553 74.4662 8.69223 74.5207 9.04972H73.1784ZM75.855 14V6.72727H80.5851V7.83168H77.1725V9.80611H80.3401V10.9105H77.1725V12.8956H80.6135V14H75.855ZM84.0901 7.83168V6.72727H89.8927V7.83168H87.6448V14H86.338V7.83168H84.0901ZM91.0113 14V6.72727H93.7385C94.2973 6.72727 94.766 6.82434 95.1448 7.01847C95.526 7.21259 95.8136 7.48485 96.0077 7.83523C96.2042 8.18324 96.3025 8.58925 96.3025 9.05327C96.3025 9.51965 96.203 9.92448 96.0042 10.2678C95.8077 10.6087 95.5177 10.8726 95.1341 11.0597C94.7506 11.2443 94.2795 11.3366 93.7208 11.3366H91.7783V10.2429H93.5432C93.8699 10.2429 94.1375 10.1979 94.3458 10.108C94.5541 10.0156 94.708 9.88187 94.8074 9.70668C94.9092 9.52912 94.9601 9.31132 94.9601 9.05327C94.9601 8.79522 94.9092 8.57505 94.8074 8.39276C94.7056 8.2081 94.5506 8.06842 94.3422 7.97372C94.1339 7.87666 93.8652 7.82812 93.5361 7.82812H92.3287V14H91.0113ZM94.7684 10.7045L96.5688 14H95.0986L93.3302 10.7045H94.7684ZM98.4491 14H97.0429L99.6032 6.72727H101.23L103.794 14H102.387L100.445 8.21875H100.388L98.4491 14ZM98.4953 11.1484H102.331V12.2067H98.4953V11.1484ZM107.216 14H104.752V6.72727H107.266C107.988 6.72727 108.608 6.87287 109.127 7.16406C109.647 7.45289 110.047 7.86837 110.327 8.41051C110.606 8.95265 110.746 9.60133 110.746 10.3565C110.746 11.1141 110.605 11.7652 110.323 12.3097C110.044 12.8542 109.64 13.272 109.112 13.5632C108.587 13.8544 107.955 14 107.216 14ZM106.069 12.8601H107.152C107.659 12.8601 108.081 12.7678 108.42 12.5831C108.758 12.3961 109.013 12.1179 109.183 11.7486C109.354 11.3769 109.439 10.9129 109.439 10.3565C109.439 9.80019 109.354 9.33854 109.183 8.97159C109.013 8.60227 108.761 8.32647 108.427 8.14418C108.095 7.95952 107.684 7.86719 107.191 7.86719H106.069V12.8601ZM111.998 14V6.72727H116.728V7.83168H113.315V9.80611H116.483V10.9105H113.315V12.8956H116.756V14H111.998ZM122.083 14L120.03 6.72727H121.447L122.758 12.0717H122.825L124.224 6.72727H125.513L126.916 12.0753H126.98L128.29 6.72727H129.707L127.655 14H126.355L124.899 8.89702H124.842L123.383 14H122.083ZM131.938 6.72727V14H130.621V6.72727H131.938ZM139.341 6.72727V14H138.169L134.743 9.04616H134.682V14H133.365V6.72727H134.544L137.967 11.6847H138.031V6.72727H139.341ZM143.241 14H140.777V6.72727H143.291C144.013 6.72727 144.633 6.87287 145.152 7.16406C145.673 7.45289 146.073 7.86837 146.352 8.41051C146.632 8.95265 146.771 9.60133 146.771 10.3565C146.771 11.1141 146.63 11.7652 146.349 12.3097C146.069 12.8542 145.666 13.272 145.138 13.5632C144.612 13.8544 143.98 14 143.241 14ZM142.094 12.8601H143.177C143.684 12.8601 144.107 12.7678 144.445 12.5831C144.784 12.3961 145.038 12.1179 145.209 11.7486C145.379 11.3769 145.464 10.9129 145.464 10.3565C145.464 9.80019 145.379 9.33854 145.209 8.97159C145.038 8.60227 144.786 8.32647 144.452 8.14418C144.121 7.95952 143.709 7.86719 143.217 7.86719H142.094V12.8601ZM154.522 10.3636C154.522 11.1473 154.375 11.8184 154.081 12.3771C153.79 12.9335 153.392 13.3596 152.888 13.6555C152.386 13.9515 151.817 14.0994 151.18 14.0994C150.543 14.0994 149.973 13.9515 149.468 13.6555C148.966 13.3572 148.569 12.9299 148.275 12.3736C147.984 11.8149 147.838 11.1449 147.838 10.3636C147.838 9.58002 147.984 8.91004 148.275 8.35369C148.569 7.79498 148.966 7.36766 149.468 7.07173C149.973 6.7758 150.543 6.62784 151.18 6.62784C151.817 6.62784 152.386 6.7758 152.888 7.07173C153.392 7.36766 153.79 7.79498 154.081 8.35369C154.375 8.91004 154.522 9.58002 154.522 10.3636ZM153.197 10.3636C153.197 9.81203 153.111 9.34683 152.938 8.96804C152.767 8.58688 152.531 8.29924 152.228 8.10511C151.925 7.90862 151.575 7.81037 151.18 7.81037C150.785 7.81037 150.435 7.90862 150.132 8.10511C149.829 8.29924 149.591 8.58688 149.419 8.96804C149.248 9.34683 149.163 9.81203 149.163 10.3636C149.163 10.9152 149.248 11.3816 149.419 11.7628C149.591 12.1416 149.829 12.4292 150.132 12.6257C150.435 12.8198 150.785 12.9169 151.18 12.9169C151.575 12.9169 151.925 12.8198 152.228 12.6257C152.531 12.4292 152.767 12.1416 152.938 11.7628C153.111 11.3816 153.197 10.9152 153.197 10.3636ZM157.112 14L155.06 6.72727H156.476L157.787 12.0717H157.854L159.253 6.72727H160.543L161.945 12.0753H162.009L163.32 6.72727H164.736L162.684 14H161.384L159.928 8.89702H159.871L158.412 14H157.112Z" fill="white"/>
</svg>
