<svg width="12" height="13" viewBox="0 0 12 13" fill="none" xmlns="http://www.w3.org/2000/svg">
<g clip-path="url(#clip0_428_215)">
<path d="M0.0593361 6.63495L5.38122 11.9464C5.45299 12.018 5.56885 12.0178 5.64045 11.9461L10.9519 6.62422C10.9863 6.58989 11.0055 6.54312 11.0054 6.49455L11.0002 1.1779C11.0001 1.10384 10.9553 1.03696 10.8869 1.00861C10.8183 0.980443 10.7397 0.996097 10.6871 1.04859L5.50522 6.24074L0.313071 1.05881C0.278017 1.02383 0.231078 1.00518 0.183404 1.00523C0.15975 1.00525 0.135928 1.00985 0.113207 1.01922C0.0446788 1.04771 0.000186637 1.11466 0.00025963 1.18874L0.00549839 6.50539C0.00554626 6.55396 0.0248416 6.60069 0.0593361 6.63495Z" fill="#EB4335"/>
</g>
<defs>
<clipPath id="clip0_428_215">
<rect width="11" height="11" fill="white" transform="translate(11.0109 11.9946) rotate(179.944)"/>
</clipPath>
</defs>
</svg>
