<svg width="34" height="30" viewBox="0 0 34 30" fill="none" xmlns="http://www.w3.org/2000/svg">
<path d="M6.90617 29.0632H4.78117C4.35848 29.0632 3.95311 28.9151 3.65422 28.6513C3.35534 28.3876 3.18742 28.0299 3.18742 27.657V19.2195C3.18742 18.8465 3.35534 18.4888 3.65422 18.2251C3.95311 17.9614 4.35848 17.8132 4.78117 17.8132H6.90617C7.32886 17.8132 7.73424 17.9614 8.03312 18.2251C8.33201 18.4888 8.49992 18.8465 8.49992 19.2195V27.657C8.49992 28.0299 8.33201 28.3876 8.03312 28.6513C7.73424 28.9151 7.32886 29.0632 6.90617 29.0632Z" fill="white"/>
<path d="M21.7812 29.0616H19.6562C19.2336 29.0616 18.8282 28.9135 18.5293 28.6498C18.2304 28.386 18.0625 28.0284 18.0625 27.6554V13.5929C18.0625 13.2199 18.2304 12.8622 18.5293 12.5985C18.8282 12.3348 19.2336 12.1866 19.6562 12.1866H21.7812C22.2039 12.1866 22.6093 12.3348 22.9082 12.5985C23.2071 12.8622 23.375 13.2199 23.375 13.5929V27.6554C23.375 28.0284 23.2071 28.386 22.9082 28.6498C22.6093 28.9135 22.2039 29.0616 21.7812 29.0616Z" fill="white"/>
<path d="M29.2187 29.0624H27.0937C26.671 29.0624 26.2656 28.9142 25.9667 28.6505C25.6679 28.3868 25.4999 28.0291 25.4999 27.6561V7.03113C25.4999 6.65817 25.6679 6.30048 25.9667 6.03676C26.2656 5.77304 26.671 5.62488 27.0937 5.62488H29.2187C29.6414 5.62488 30.0468 5.77304 30.3456 6.03676C30.6445 6.30048 30.8124 6.65817 30.8124 7.03113V27.6561C30.8124 28.0291 30.6445 28.3868 30.3456 28.6505C30.0468 28.9142 29.6414 29.0624 29.2187 29.0624Z" fill="white"/>
<path d="M14.3437 29.062H12.2187C11.796 29.062 11.3907 28.9138 11.0918 28.6501C10.7929 28.3864 10.625 28.0287 10.625 27.6558V2.34326C10.625 1.9703 10.7929 1.61262 11.0918 1.34889C11.3907 1.08517 11.796 0.937012 12.2187 0.937012H14.3437C14.7664 0.937012 15.1718 1.08517 15.4707 1.34889C15.7696 1.61262 15.9375 1.9703 15.9375 2.34326V27.6558C15.9375 28.0287 15.7696 28.3864 15.4707 28.6501C15.1718 28.9138 14.7664 29.062 14.3437 29.062Z" fill="white"/>
</svg>
