<svg width="37" height="36" viewBox="0 0 37 36" fill="none" xmlns="http://www.w3.org/2000/svg">
<path d="M18.5 3C27.0146 3 33.9167 9.7155 33.9167 18C33.9167 26.2845 27.0146 33 18.5 33C9.98537 33 3.08333 26.2845 3.08333 18H6.16666C6.16666 24.627 11.6889 30 18.5 30C25.3111 30 30.8333 24.627 30.8333 18C30.8333 11.373 25.3111 6 18.5 6C14.2604 6 10.5203 8.0805 8.30187 11.25H12.3333V14.25H3.08333V5.25H6.16666V9C8.97866 5.355 13.4572 3 18.5 3ZM20.0417 10.5V17.3775L25.0413 22.242L22.8598 24.3645L16.9583 18.6195V10.5H20.0417Z" fill="white"/>
</svg>
