<svg width="86" height="22" viewBox="0 0 86 22" fill="none" xmlns="http://www.w3.org/2000/svg">
<rect x="9" width="64" height="22" rx="11" fill="#34A853"/>
<path d="M26.7536 6.72727V14H25.4361V6.72727H26.7536ZM34.1568 6.72727V14H32.9849L29.5581 9.04616H29.4977V14H28.1802V6.72727H29.3592L32.7825 11.6847H32.8464V6.72727H34.1568ZM36.5653 6.72727L38.4581 12.4517H38.5327L40.4219 6.72727H41.8707L39.3068 14H37.6804L35.12 6.72727H36.5653ZM42.8287 14V6.72727H47.5588V7.83168H44.1461V9.80611H47.3137V10.9105H44.1461V12.8956H47.5872V14H42.8287ZM52.8553 8.72656C52.8221 8.41643 52.6825 8.17495 52.4363 8.00213C52.1924 7.82931 51.8752 7.7429 51.4846 7.7429C51.2099 7.7429 50.9744 7.78433 50.7779 7.86719C50.5814 7.95005 50.431 8.0625 50.3269 8.20455C50.2227 8.34659 50.1694 8.50876 50.1671 8.69105C50.1671 8.84257 50.2014 8.97396 50.2701 9.08523C50.3411 9.1965 50.437 9.29119 50.5577 9.36932C50.6784 9.44508 50.8122 9.509 50.959 9.56108C51.1058 9.61316 51.2537 9.65696 51.4029 9.69247L52.0847 9.86293C52.3593 9.92685 52.6233 10.0133 52.8766 10.1222C53.1323 10.2311 53.3607 10.3684 53.562 10.5341C53.7656 10.6998 53.9266 10.8999 54.0449 11.1342C54.1633 11.3686 54.2225 11.6432 54.2225 11.9581C54.2225 12.3842 54.1136 12.7595 53.8958 13.0838C53.678 13.4058 53.3631 13.6579 52.9512 13.8402C52.5416 14.0201 52.0456 14.1101 51.4632 14.1101C50.8974 14.1101 50.4062 14.0225 49.9895 13.8473C49.5752 13.6721 49.2509 13.4164 49.0165 13.0803C48.7845 12.7441 48.659 12.3345 48.6401 11.8516H49.9363C49.9552 12.1049 50.0333 12.3156 50.1706 12.4837C50.3079 12.6518 50.4867 12.7772 50.7069 12.8601C50.9294 12.9429 51.178 12.9844 51.4526 12.9844C51.7391 12.9844 51.99 12.9418 52.2054 12.8565C52.4232 12.7689 52.5937 12.6482 52.7168 12.4943C52.8399 12.3381 52.9026 12.1558 52.905 11.9474C52.9026 11.758 52.847 11.6018 52.7381 11.4787C52.6292 11.3532 52.4765 11.2491 52.28 11.1662C52.0859 11.081 51.8586 11.0052 51.5982 10.9389L50.7708 10.7259C50.1718 10.572 49.6983 10.3388 49.3503 10.0263C49.0047 9.71141 48.8319 9.29356 48.8319 8.77273C48.8319 8.34422 48.9479 7.96899 49.1799 7.64702C49.4142 7.32505 49.7327 7.07528 50.1351 6.89773C50.5376 6.7178 50.9933 6.62784 51.5023 6.62784C52.0184 6.62784 52.4706 6.7178 52.8588 6.89773C53.2495 7.07528 53.556 7.32268 53.7786 7.63991C54.0011 7.95478 54.1159 8.317 54.123 8.72656H52.8553ZM55.0774 7.83168V6.72727H60.88V7.83168H58.6321V14H57.3253V7.83168H55.0774Z" fill="white"/>
</svg>
