<svg width="58" height="55"
    viewBox="0 0 58 55" fill="none"
    xmlns="http://www.w3.org/2000/svg">
<path d="M31.378 34.375C31.378 35.6407 32.4602 36.6667 33.7947 36.6667C34.6584 36.6667 35.4162 36.237 35.8437 35.5907L42.3388 29.4316C43.2825 28.5367 43.2825 27.0857 42.3388 26.1908C41.3951 25.2959 39.8648 25.2959 38.9211 26.1908L36.2113 28.7602V11.4583C36.2113 10.1927 35.1294 9.16666 33.7947 9.16666C32.4602 9.16666 31.378 10.1927 31.378 11.4583V34.2618C31.3777 34.2826 31.3777 34.3035 31.378 34.3243V34.375Z" fill="white"/>
<path d="M26.6215 20.625C26.6215 19.3593 25.5396 18.3333 24.2049 18.3333C23.3412 18.3333 22.5834 18.763 22.156 19.4092L15.6609 25.5684C14.7172 26.4633 14.7172 27.9143 15.6609 28.8092C16.6047 29.7041 18.1349 29.7041 19.0786 28.8092L21.7883 26.2398V43.5417C21.7883 44.8074 22.8702 45.8333 24.2049 45.8333C25.5396 45.8333 26.6215 44.8074 26.6215 43.5417V20.7383C26.622 20.7174 26.622 20.6965 26.6215 20.6756V20.625Z" fill="white"/>
</svg>
