<svg width="30" height="30" viewBox="0 0 30 30" fill="none" xmlns="http://www.w3.org/2000/svg">
<path d="M0 15C0 23.271 6.72904 30 15 30C23.272 30 30 23.271 30 15C30 6.72904 23.271 0 15 0C11.8388 0 8.9046 0.985607 6.48351 2.66209C6.2631 2.46477 5.9749 2.34126 5.65707 2.34126C4.96971 2.34126 4.41038 2.90059 4.41038 3.58795C4.41038 3.81891 4.47766 4.0328 4.58762 4.21808C1.76184 6.94795 0 10.7709 0 15ZM29.4959 14.749H25.4184H22.4686H17.6872C17.6817 14.7043 17.6686 14.6631 17.6611 14.6194C17.6505 14.5486 17.6365 14.4793 17.6189 14.4105C17.5983 14.3267 17.5722 14.2459 17.5431 14.1655C17.5195 14.1003 17.4944 14.036 17.4673 13.9732C17.4321 13.8959 17.39 13.8226 17.3458 13.7498C17.3121 13.6915 17.2765 13.6333 17.2373 13.5781C17.1861 13.5088 17.1314 13.445 17.0751 13.3813C17.03 13.3315 16.9878 13.2803 16.9391 13.2346C16.8763 13.1744 16.8065 13.1222 16.7382 13.0685C16.686 13.0288 16.6393 12.9866 16.5821 12.951C16.5068 12.9013 16.4244 12.8611 16.3416 12.8199C16.2869 12.7923 16.2336 12.7602 16.1769 12.7366C16.0825 12.6979 15.9821 12.6718 15.8837 12.6452C15.8315 12.6316 15.7838 12.6115 15.73 12.601C15.5744 12.5704 15.4157 12.5528 15.2521 12.5528V7.53188V4.58209V0.504602C23.046 0.637657 29.3618 6.95398 29.4959 14.749ZM25.0976 16.1508C25.077 16.328 25.0454 16.5018 25.0172 16.676C24.9906 16.8336 24.967 16.9928 24.9344 17.1485C24.8972 17.3202 24.849 17.4879 24.8033 17.6561C24.7622 17.8082 24.7245 17.9613 24.6758 18.1105C24.6226 18.2762 24.5588 18.4358 24.4971 18.5995C24.4428 18.7446 24.3906 18.8912 24.3289 19.0328C24.2591 19.192 24.1803 19.3456 24.1029 19.5008C24.0351 19.6373 23.9709 19.7769 23.8976 19.91C23.8127 20.0621 23.7198 20.2077 23.6269 20.3548C23.5476 20.4828 23.4708 20.6134 23.3864 20.7374C23.2885 20.881 23.1796 21.0166 23.0741 21.1546C22.9823 21.2736 22.8964 21.3962 22.8 21.5106C22.686 21.6442 22.5665 21.7697 22.4485 21.8977C22.3481 22.0067 22.2497 22.1192 22.1453 22.2221C22.0208 22.3456 21.8867 22.4606 21.7572 22.5761C21.6462 22.6745 21.5392 22.7769 21.4263 22.8723C21.2897 22.9843 21.1436 23.0862 20.9995 23.1911C20.882 23.2775 20.7675 23.3689 20.6465 23.4507C20.4959 23.5511 20.3387 23.64 20.1821 23.7334C20.0591 23.8067 19.9391 23.886 19.8126 23.9533C19.6509 24.0407 19.4807 24.1155 19.313 24.1938C19.1849 24.2536 19.0599 24.3203 18.9289 24.3756C18.7531 24.4494 18.5709 24.5086 18.3911 24.5734C18.2606 24.6211 18.1336 24.6733 18.0015 24.7135C17.8122 24.7722 17.6149 24.8154 17.4221 24.8636C17.2915 24.8952 17.166 24.9364 17.035 24.961C16.8156 25.0057 16.5916 25.0333 16.3692 25.0629C16.2572 25.078 16.1493 25.1016 16.0388 25.1126C15.9133 24.0597 15.0241 23.2398 13.9381 23.2398C13.0037 23.2398 12.2169 23.8504 11.9332 24.6909C7.8231 23.3854 4.83565 19.5354 4.83565 14.9995C4.83565 14.6515 4.85372 14.3081 4.88787 13.9687C4.89941 13.8557 4.92301 13.7468 4.93808 13.6348C4.9682 13.4114 4.99582 13.1864 5.04 12.9675C5.06661 12.8365 5.10628 12.71 5.13791 12.5809C5.18561 12.3866 5.22879 12.1903 5.28753 12.0005C5.3287 11.8679 5.38192 11.7409 5.42812 11.6104C5.49188 11.4301 5.55163 11.2479 5.62544 11.0726C5.68067 10.9416 5.74695 10.8171 5.8077 10.6885C5.88653 10.5213 5.96134 10.3511 6.0487 10.189C6.11699 10.0619 6.19632 9.94243 6.26962 9.81891C6.36251 9.66326 6.45138 9.50511 6.5518 9.35498C6.63314 9.23347 6.72452 9.1195 6.81088 9.00201C6.91582 8.85891 7.01774 8.71331 7.12971 8.57573C7.2231 8.46126 7.32603 8.35481 7.42444 8.24435C7.54142 8.11331 7.6549 7.97975 7.77841 7.85523C7.88285 7.74979 7.99582 7.65239 8.10477 7.55146C8.2328 7.43297 8.35783 7.31197 8.49138 7.2C8.60636 7.1041 8.72837 7.01674 8.84736 6.92586C8.98544 6.82042 9.121 6.71197 9.2646 6.61356C9.38862 6.5282 9.51916 6.45239 9.6472 6.37255C9.79431 6.28067 9.93992 6.18628 10.0921 6.10192C10.2256 6.02812 10.3647 5.96385 10.5013 5.89607C10.6564 5.81925 10.81 5.73941 10.9692 5.67013C11.1108 5.60887 11.2579 5.55716 11.4025 5.50192C11.5647 5.44017 11.7254 5.3759 11.8915 5.32268C12.0407 5.27448 12.1938 5.23682 12.3459 5.19565C12.5146 5.14996 12.6818 5.10176 12.8536 5.0646C13.0092 5.03096 13.1679 5.00787 13.326 4.98176C13.5003 4.95264 13.674 4.92151 13.8512 4.90142C14.0119 4.88335 14.1751 4.87582 14.3377 4.86527C14.4748 4.85623 14.6114 4.8477 14.751 4.84418V7.28285C14.6561 7.28586 14.5632 7.29941 14.4683 7.30594C14.3463 7.31448 14.2233 7.32201 14.1023 7.33607C13.9672 7.35163 13.8346 7.37473 13.7021 7.39732C13.5836 7.41741 13.4646 7.43649 13.3481 7.46209C13.2166 7.49071 13.0885 7.52686 12.96 7.56201C12.8465 7.59314 12.732 7.62276 12.6206 7.65891C12.4936 7.70008 12.37 7.74879 12.246 7.79598C12.1376 7.83766 12.0281 7.87732 11.9222 7.92351C11.8007 7.97573 11.6832 8.03649 11.5652 8.09573C11.4623 8.14695 11.3583 8.19665 11.2579 8.25239C11.1424 8.31665 11.0315 8.38795 10.9195 8.45824C10.8231 8.51849 10.7252 8.57674 10.6318 8.641C10.5228 8.71632 10.4189 8.79816 10.314 8.879C10.2246 8.94778 10.1332 9.01356 10.0474 9.08636C9.94594 9.17172 9.85004 9.2636 9.75314 9.35397C9.67079 9.43029 9.58695 9.5041 9.50812 9.58393C9.41473 9.67883 9.32787 9.77975 9.2395 9.87916C9.16519 9.96251 9.08837 10.0433 9.01757 10.1302C8.93272 10.2341 8.8559 10.3436 8.77657 10.4521C8.7108 10.5419 8.64201 10.6288 8.58025 10.7212C8.50494 10.8341 8.43816 10.9526 8.36837 11.0691C8.31213 11.164 8.25188 11.2559 8.19967 11.3533C8.13389 11.4753 8.07816 11.6023 8.01891 11.7284C7.97272 11.8268 7.92201 11.9227 7.87983 12.0231C7.8241 12.1556 7.77941 12.2927 7.73121 12.4288C7.69607 12.5282 7.6559 12.6251 7.62477 12.726C7.58008 12.8706 7.54695 13.0197 7.5108 13.1679C7.4872 13.2653 7.45757 13.3602 7.43749 13.4591C7.40887 13.5987 7.3928 13.7423 7.37222 13.8849C6.82644 13.9642 6.40418 14.4306 6.40418 14.998C6.40418 15.5654 6.82644 16.0333 7.37272 16.1111C7.91548 19.8422 11.1254 22.7177 15.0025 22.7177C15.2656 22.7177 15.5262 22.7041 15.7838 22.678C15.8701 22.6679 15.9545 22.6504 16.0423 22.6393C16.2105 22.6167 16.3792 22.5962 16.5419 22.5635C16.6408 22.5439 16.7372 22.5128 16.8331 22.4902C16.9813 22.4541 17.1319 22.4199 17.2755 22.3752C17.3764 22.3441 17.4743 22.3034 17.5737 22.2693C17.7098 22.2201 17.8469 22.1749 17.9809 22.1202C18.0798 22.0775 18.1777 22.0268 18.2751 21.9811C18.4007 21.9233 18.5282 21.8661 18.6507 21.8018C18.7466 21.7496 18.84 21.6879 18.9334 21.6331C19.0494 21.5623 19.1694 21.4971 19.2798 21.4213C19.3737 21.3595 19.4591 21.2897 19.5495 21.2239C19.6574 21.1446 19.7684 21.0673 19.8723 20.9834C19.9592 20.9116 20.04 20.8358 20.1233 20.763C20.2213 20.6731 20.3222 20.5863 20.4186 20.4944C20.4984 20.4161 20.5737 20.3312 20.6485 20.2499C20.7404 20.153 20.8293 20.0561 20.9156 19.9556C20.9885 19.8688 21.0537 19.7779 21.1225 19.689C21.2028 19.5841 21.2852 19.4802 21.3615 19.3712C21.4258 19.2773 21.484 19.1794 21.5433 19.0835C21.6146 18.971 21.6844 18.8611 21.7491 18.7451C21.8049 18.6447 21.8541 18.5408 21.9063 18.4383C21.9655 18.3208 22.0253 18.2023 22.0795 18.0808C22.1257 17.9749 22.1659 17.8654 22.207 17.7565C22.2552 17.6325 22.3019 17.5095 22.3431 17.3824C22.3782 17.27 22.4089 17.157 22.439 17.0425C22.4741 16.914 22.5113 16.7839 22.5389 16.6549C22.5645 16.5389 22.5831 16.4194 22.6037 16.3009C22.6263 16.1669 22.6489 16.0358 22.6644 15.9008C22.678 15.7797 22.686 15.6582 22.6956 15.5347C22.7021 15.4403 22.7157 15.3474 22.7187 15.2526H25.1558C25.1528 15.3896 25.1453 15.5282 25.1352 15.6643C25.1232 15.8264 25.1151 15.9906 25.0976 16.1508ZM12.3168 25.3145C13.1759 25.5379 14.0716 25.6695 14.9995 25.6695C15.1772 25.6695 15.3525 25.6519 15.5297 25.6428C15.3962 26.405 14.7349 26.9874 13.9341 26.9874C13.0393 26.9874 12.3118 26.2599 12.3118 25.3657C12.3118 25.3476 12.3163 25.3315 12.3168 25.3145ZM15 25.1674C14.1048 25.1674 13.2402 25.0393 12.4127 24.8214C12.6377 24.1948 13.2316 23.7439 13.9346 23.7439C14.752 23.7439 15.4238 24.3545 15.5347 25.1423C15.3565 25.1498 15.1803 25.1674 15 25.1674ZM15.6281 13.0926C15.6693 13.1006 15.7074 13.1162 15.7471 13.1267C15.8254 13.1478 15.9043 13.1689 15.9801 13.199C16.0253 13.2176 16.0674 13.2422 16.1106 13.2638C16.1754 13.2959 16.2407 13.328 16.3009 13.3667C16.3441 13.3943 16.3833 13.4269 16.4244 13.4581C16.4787 13.4998 16.5324 13.5419 16.5816 13.5886C16.6198 13.6248 16.6549 13.6639 16.6905 13.7031C16.7357 13.7528 16.7789 13.804 16.8191 13.8587C16.8502 13.9019 16.8788 13.9466 16.9069 13.9923C16.9421 14.0495 16.9752 14.1083 17.0033 14.1695C17.0264 14.2182 17.0475 14.2674 17.0666 14.3182C17.0907 14.3819 17.1103 14.4477 17.1279 14.5145C17.1404 14.5672 17.1545 14.6199 17.163 14.6741C17.168 14.6987 17.168 14.7244 17.1715 14.749H15.2515V13.0544C15.3801 13.0544 15.5056 13.0685 15.6281 13.0926ZM22.192 15.4996C22.1829 15.6176 22.1759 15.7356 22.1613 15.8521C22.1478 15.9736 22.1272 16.0941 22.1066 16.2141C22.0875 16.329 22.0685 16.4445 22.0438 16.5575C22.0172 16.675 21.9856 16.79 21.9535 16.9054C21.9218 17.0174 21.8927 17.1284 21.8581 17.2378C21.8219 17.3508 21.7782 17.4603 21.7361 17.5702C21.6949 17.6772 21.6552 17.7851 21.6095 17.8895C21.5623 17.9965 21.5101 18.0999 21.4574 18.2044C21.4052 18.3068 21.357 18.4102 21.3003 18.5096C21.245 18.6095 21.1823 18.7069 21.1225 18.8049C21.0618 18.9018 21.0025 19.0007 20.9377 19.0946C20.8725 19.1885 20.8017 19.2783 20.7324 19.3692C20.6631 19.4601 20.5963 19.552 20.5215 19.6398C20.4482 19.7272 20.3684 19.81 20.2905 19.8939C20.2132 19.9777 20.1369 20.0631 20.0566 20.1429C19.9742 20.2238 19.8859 20.2986 19.7995 20.3754C19.7151 20.4502 19.6328 20.529 19.5449 20.5993C19.4536 20.6726 19.3592 20.7394 19.2643 20.8092C19.1734 20.876 19.0865 20.9453 18.9916 21.0075C18.8937 21.0733 18.7898 21.1315 18.6884 21.1928C18.594 21.2495 18.5011 21.3093 18.4032 21.362C18.2952 21.4203 18.1833 21.4695 18.0718 21.5222C17.9744 21.5684 17.8785 21.6181 17.7786 21.6603C17.6606 21.7095 17.5381 21.7496 17.4176 21.7928C17.3192 21.8279 17.2218 21.8661 17.1213 21.8987C16.9913 21.9389 16.8582 21.968 16.7242 22.0007C16.6293 22.0248 16.5349 22.0529 16.438 22.0735C16.2859 22.1041 16.1327 22.1227 15.9781 22.1443C15.8947 22.1553 15.8139 22.1744 15.7295 22.1809C15.4895 22.205 15.2465 22.2181 15.0005 22.2181C11.3854 22.2181 8.39197 19.5444 7.8713 16.073C8.3277 15.9279 8.66159 15.5041 8.66159 15.0005C8.66159 14.4969 8.3277 14.0741 7.8713 13.9285C7.88937 13.8065 7.90293 13.683 7.92703 13.563C7.94661 13.4656 7.97573 13.3717 7.99933 13.2758C8.03197 13.1428 8.06159 13.0087 8.10176 12.8787C8.13289 12.7782 8.17255 12.6818 8.2077 12.5834C8.25088 12.4624 8.29054 12.3404 8.34025 12.2224C8.38192 12.1225 8.43213 12.0271 8.47833 11.9292C8.53105 11.8177 8.58025 11.7053 8.63849 11.5973C8.69071 11.4994 8.75096 11.407 8.8077 11.3116C8.86895 11.2097 8.9272 11.1058 8.99297 11.0074C9.05523 10.9135 9.12452 10.8251 9.1913 10.7347C9.26059 10.6408 9.32736 10.5454 9.40067 10.4551C9.47197 10.3672 9.54979 10.2849 9.6251 10.2005C9.70193 10.1146 9.77674 10.0268 9.85757 9.94444C9.93741 9.8631 10.0228 9.78778 10.1066 9.71046C10.1905 9.63264 10.2728 9.55331 10.3607 9.4795C10.448 9.40569 10.5404 9.33791 10.6313 9.26862C10.7222 9.19933 10.8115 9.12854 10.9059 9.06326C11.0003 8.99799 11.0987 8.93925 11.1956 8.87849C11.2931 8.81774 11.39 8.75548 11.4909 8.69925C11.5903 8.64351 11.6937 8.59381 11.7962 8.5431C11.9006 8.49138 12.004 8.43816 12.111 8.39096C12.2154 8.34527 12.3233 8.3051 12.4303 8.26443C12.5403 8.22226 12.6502 8.17958 12.7627 8.14243C12.8716 8.10678 12.9836 8.07715 13.0951 8.04653C13.2105 8.0149 13.3255 7.98276 13.443 7.95665C13.556 7.93155 13.6715 7.91297 13.7864 7.89339C13.9064 7.8728 14.0264 7.85222 14.1485 7.83816C14.2649 7.8246 14.3829 7.81657 14.5009 7.80854C14.5833 7.80301 14.6661 7.799 14.7495 7.79598V12.6166C14.7098 12.6251 14.6726 12.6412 14.6335 12.6517C14.5667 12.6693 14.5009 12.6879 14.4372 12.7105C14.3628 12.7366 14.2921 12.7667 14.2218 12.7993C14.1615 12.8269 14.1028 12.8551 14.0455 12.8877C13.9772 12.9264 13.9135 12.9695 13.8497 13.0142C13.7975 13.0509 13.7453 13.0865 13.6961 13.1272C13.6348 13.1774 13.5791 13.2326 13.5233 13.2889C13.4797 13.3326 13.4345 13.3747 13.3943 13.4219C13.3416 13.4832 13.2959 13.55 13.2492 13.6162C13.2146 13.6654 13.1779 13.7126 13.1473 13.7644C13.1036 13.8377 13.069 13.9155 13.0333 13.9933C13.0097 14.0445 12.9821 14.0937 12.962 14.1469C12.9284 14.2358 12.9058 14.3297 12.8827 14.4231C12.8711 14.4698 12.8541 14.5145 12.845 14.5622C12.8184 14.7053 12.8033 14.8524 12.8033 15.0025C12.8033 16.3521 13.9014 17.4502 15.251 17.4502C15.4147 17.4502 15.5749 17.4331 15.729 17.402C15.7813 17.3915 15.8295 17.3709 15.8822 17.3573C15.9816 17.3307 16.0815 17.3051 16.1754 17.2659C16.2326 17.2408 16.2859 17.2112 16.3401 17.1826C16.4224 17.1414 16.5048 17.1013 16.5806 17.05C16.6348 17.0159 16.6835 16.9737 16.7362 16.9346C16.8065 16.8813 16.8738 16.8286 16.9376 16.7679C16.9858 16.7217 17.0285 16.6715 17.0726 16.6218C17.1294 16.558 17.1861 16.4942 17.2353 16.4229C17.275 16.3697 17.3086 16.3085 17.3438 16.2512C17.3874 16.1779 17.4296 16.1051 17.4653 16.0278C17.4944 15.965 17.518 15.9008 17.5416 15.8355C17.5717 15.7551 17.5968 15.6763 17.6174 15.592C17.634 15.5217 17.6485 15.4544 17.6596 15.3831C17.6671 15.3379 17.6802 15.2977 17.6857 15.2521H22.2045C22.203 15.3344 22.1985 15.4172 22.192 15.4996ZM7.78243 15C7.78243 14.8127 7.79649 14.629 7.81054 14.4452C8.0149 14.5486 8.159 14.756 8.159 15C8.159 15.244 8.0149 15.4509 7.81054 15.5548C7.79649 15.371 7.78243 15.1873 7.78243 15ZM7.28033 15C7.28033 15.1973 7.2954 15.3891 7.30996 15.5829C7.07347 15.4931 6.90377 15.2676 6.90377 15C6.90377 14.7324 7.07347 14.5074 7.30946 14.4171C7.2949 14.6109 7.28033 14.8027 7.28033 15ZM17.1645 15.3254C17.154 15.3786 17.1419 15.4333 17.1284 15.4845C17.1113 15.5528 17.0917 15.6186 17.0676 15.6823C17.0485 15.7336 17.0274 15.7823 17.0044 15.8315C16.9742 15.8912 16.9431 15.951 16.9085 16.0087C16.8803 16.0554 16.8522 16.0996 16.8201 16.1428C16.7804 16.1965 16.7367 16.2487 16.6915 16.2994C16.6564 16.3386 16.6213 16.3777 16.5821 16.4144C16.5324 16.4626 16.4782 16.5043 16.4249 16.5459C16.3848 16.5771 16.3446 16.6097 16.3014 16.6373C16.2422 16.6765 16.1769 16.7091 16.1121 16.7403C16.068 16.7618 16.0263 16.7874 15.9811 16.805C15.9068 16.8367 15.8269 16.8572 15.7476 16.8783C15.7085 16.8889 15.6703 16.9044 15.6291 16.9105C15.5071 16.9351 15.3816 16.9486 15.2521 16.9486C14.1791 16.9486 13.3064 16.077 13.3064 15.003C13.3064 14.8865 13.3185 14.771 13.3386 14.6596C13.3451 14.6224 13.3577 14.5863 13.3667 14.5511C13.3843 14.4778 13.4028 14.405 13.429 14.3352C13.444 14.2946 13.4641 14.2559 13.4817 14.2167C13.5093 14.155 13.5379 14.0937 13.5721 14.0355C13.5951 13.9963 13.6208 13.9597 13.6464 13.922C13.683 13.8683 13.7212 13.8156 13.7633 13.7654C13.793 13.7302 13.8241 13.6971 13.8557 13.6644C13.9009 13.6177 13.9486 13.5731 13.9988 13.5309C14.0335 13.5018 14.0691 13.4731 14.1058 13.4465C14.1595 13.4074 14.2162 13.3717 14.2745 13.3376C14.3126 13.3155 14.3508 13.2929 14.391 13.2733C14.4542 13.2422 14.521 13.2166 14.5883 13.192C14.6274 13.1779 14.6661 13.1618 14.7068 13.1498C14.7208 13.1458 14.7364 13.1443 14.75 13.1408V15.0035C14.75 15.1421 14.8629 15.2546 15.001 15.2546H17.1715C17.168 15.2756 17.168 15.3013 17.1645 15.3254ZM14.749 4.33356C14.6023 4.33707 14.4603 4.35615 14.3151 4.36519C14.1414 4.37623 13.9677 4.38377 13.7965 4.40335C13.6127 4.42393 13.4335 4.45657 13.2527 4.48669C13.0845 4.51481 12.9153 4.53891 12.7496 4.57456C12.5719 4.61272 12.3992 4.66293 12.2249 4.70962C12.0623 4.75381 11.8981 4.79347 11.7384 4.84519C11.5682 4.89992 11.4035 4.96569 11.2373 5.02895C11.0807 5.0882 10.9225 5.14343 10.7694 5.21021C10.6077 5.2805 10.4521 5.36134 10.2944 5.43916C10.1448 5.51297 9.99314 5.58276 9.84753 5.6636C9.69439 5.74845 9.54879 5.84385 9.40017 5.93573C9.25908 6.0236 9.11498 6.10695 8.97791 6.20084C8.83431 6.29975 8.69824 6.4082 8.55967 6.51364C8.42812 6.61406 8.29305 6.70996 8.16653 6.8159C8.03297 6.92736 7.90845 7.04887 7.78042 7.16686C7.65891 7.27883 7.53389 7.38678 7.41791 7.50427C7.2954 7.62828 7.18293 7.76134 7.06644 7.89088C6.95649 8.01339 6.84201 8.13188 6.73808 8.25992C6.62711 8.39598 6.52669 8.54059 6.42226 8.68218C6.32485 8.81423 6.22293 8.94176 6.13155 9.07833C6.03264 9.22644 5.94527 9.38209 5.85389 9.53523C5.77004 9.67481 5.68117 9.81038 5.60385 9.95347C5.51699 10.1141 5.44368 10.2823 5.36536 10.448C5.29707 10.5921 5.22226 10.7327 5.16 10.8803C5.08669 11.0551 5.02745 11.2373 4.96318 11.4166C4.91096 11.5627 4.85121 11.7053 4.80502 11.8539C4.74527 12.0472 4.70159 12.247 4.65289 12.4449C4.61774 12.5864 4.57456 12.7245 4.54544 12.8686C4.49925 13.0956 4.47113 13.329 4.4395 13.561C4.42293 13.681 4.39782 13.798 4.38527 13.9195C4.34912 14.2755 4.33054 14.636 4.33054 15.0015C4.33054 19.7809 7.4887 23.8358 11.8278 25.1895C11.8228 25.2487 11.8097 25.3054 11.8097 25.3667C11.8097 26.5376 12.7627 27.4905 13.9341 27.4905C15.0191 27.4905 15.9073 26.6701 16.0348 25.6182C16.0499 25.6172 16.0664 25.6172 16.0835 25.6152C16.2035 25.6037 16.323 25.5781 16.442 25.5615C16.674 25.5304 16.9074 25.5018 17.1344 25.4556C17.278 25.4259 17.4166 25.3828 17.5592 25.3476C17.7575 25.2994 17.9573 25.2537 18.1506 25.1955C18.2997 25.1478 18.4418 25.0905 18.5879 25.0378C18.7657 24.9736 18.95 24.9148 19.1227 24.8405C19.2703 24.7787 19.4109 24.7039 19.5545 24.6357C19.7202 24.5573 19.8879 24.4835 20.0485 24.3951C20.1911 24.3198 20.3282 24.2285 20.4663 24.1451C20.6204 24.0532 20.7746 23.9674 20.9227 23.8674C21.0587 23.7741 21.1868 23.6731 21.3188 23.5767C21.4604 23.4723 21.6045 23.3724 21.7421 23.2609C21.8696 23.1565 21.9876 23.041 22.1101 22.9331C22.2397 22.8181 22.3722 22.7056 22.4972 22.5831C22.6142 22.4671 22.7222 22.3421 22.8346 22.2186C22.9526 22.0905 23.0751 21.966 23.1856 21.8315C23.2915 21.7039 23.3874 21.5699 23.4889 21.4393C23.5943 21.3013 23.7033 21.1652 23.8017 21.0211C23.8961 20.885 23.9794 20.7389 24.0663 20.5978C24.1587 20.4487 24.2536 20.3026 24.3379 20.1495C24.4182 20.0044 24.489 19.8522 24.5613 19.7026C24.6392 19.5454 24.72 19.3893 24.7903 19.2276C24.8566 19.0745 24.9118 18.9168 24.971 18.7597C25.0338 18.5935 25.1006 18.4288 25.1543 18.2586C25.2065 18.0989 25.2467 17.9347 25.2904 17.7721C25.3376 17.5963 25.3863 17.4251 25.4264 17.2474C25.4606 17.0817 25.4862 16.912 25.5148 16.7443C25.5449 16.5635 25.5766 16.3838 25.5982 16.2C25.6167 16.0288 25.6253 15.8546 25.6353 15.6813C25.6454 15.5367 25.6644 15.3946 25.6664 15.248H29.4959C29.3618 23.1294 22.9105 29.4979 15 29.4979C7.00569 29.4979 0.502092 22.9943 0.502092 15C0.502092 10.9185 2.20017 7.22862 4.92351 4.59163C5.12987 4.74276 5.38193 4.83515 5.65707 4.83515C6.34444 4.83515 6.90377 4.27582 6.90377 3.58845C6.90377 3.39967 6.85858 3.22243 6.78276 3.06176C9.05573 1.49272 11.7962 0.554812 14.749 0.5041V4.33356ZM6.36402 3.36552C6.38611 3.43632 6.40167 3.51013 6.40167 3.58795C6.40167 3.99866 6.06778 4.33255 5.65707 4.33255C5.52703 4.33255 5.40703 4.2964 5.30059 4.23766C5.6405 3.93088 5.99548 3.63967 6.36402 3.36552ZM4.91197 3.58795C4.91197 3.17724 5.24586 2.84335 5.65657 2.84335C5.80519 2.84335 5.94326 2.88803 6.05925 2.96335C5.68017 3.24552 5.31565 3.54577 4.96519 3.86159C4.93205 3.77674 4.91197 3.68485 4.91197 3.58795Z" fill="white"/>
<path d="M23.7239 10.56C24.6678 10.56 25.4345 9.79281 25.4345 8.84938C25.4345 7.90645 24.6678 7.13925 23.7239 7.13925C22.7804 7.13925 22.0132 7.90645 22.0132 8.84938C22.0132 9.79281 22.7804 10.56 23.7239 10.56ZM23.7239 7.64134C24.3901 7.64134 24.9324 8.1831 24.9324 8.84938C24.9324 9.51565 24.3901 10.0579 23.7239 10.0579C23.0576 10.0579 22.5153 9.51565 22.5153 8.84938C22.5153 8.1831 23.0576 7.64134 23.7239 7.64134Z" fill="white"/>
<path d="M18.4519 11.046C19.1448 11.046 19.7071 10.4832 19.7071 9.79078C19.7071 9.0984 19.1448 8.53555 18.4519 8.53555C17.7595 8.53555 17.1967 9.0984 17.1967 9.79078C17.1967 10.4832 17.7595 11.046 18.4519 11.046ZM18.4519 9.03764C18.8671 9.03764 19.205 9.37555 19.205 9.79078C19.205 10.206 18.8671 10.5439 18.4519 10.5439C18.0367 10.5439 17.6987 10.206 17.6987 9.79078C17.6987 9.37555 18.0367 9.03764 18.4519 9.03764Z" fill="white"/>
</svg>
