<svg width="39" height="29" viewBox="0 0 39 29" fill="none" xmlns="http://www.w3.org/2000/svg">
<path d="M35.75 12.0833V24.1667C35.75 24.4871 35.5788 24.7945 35.274 25.0211C34.9693 25.2477 34.556 25.375 34.125 25.375H4.875C4.44402 25.375 4.0307 25.2477 3.72595 25.0211C3.4212 24.7945 3.25 24.4871 3.25 24.1667V12.0833H35.75ZM35.75 9.66667H3.25V4.83333C3.25 4.51286 3.4212 4.20552 3.72595 3.97891C4.0307 3.75231 4.44402 3.625 4.875 3.625H34.125C34.556 3.625 34.9693 3.75231 35.274 3.97891C35.5788 4.20552 35.75 4.51286 35.75 4.83333V9.66667ZM24.375 19.3333V21.75H30.875V19.3333H24.375Z" fill="white"/>
<rect width="39" height="29" stroke="black"/>
</svg>
