<svg width="40" height="36" viewBox="0 0 40 36" fill="none" xmlns="http://www.w3.org/2000/svg">
<path d="M25.9873 4.54023C24.467 3.06297 22.3436 2.24945 19.9998 2.24945C17.6436 2.24945 15.5131 3.05804 13.9998 4.52617C12.4701 6.01046 11.7248 8.02773 11.8998 10.206C12.2467 14.5035 15.8803 17.9994 19.9998 17.9994C24.1194 17.9994 27.7467 14.5042 28.099 10.2074C28.2764 8.04882 27.5264 6.03578 25.9873 4.54023Z" fill="white"/>
<path d="M33.7499 33.7479H6.2499C5.88995 33.7521 5.53348 33.684 5.20643 33.5486C4.87938 33.4133 4.58998 33.214 4.35927 32.9653C3.85146 32.419 3.64677 31.6729 3.79833 30.9185C4.45771 27.6265 6.51552 24.8611 9.7499 22.9197C12.6233 21.1964 16.2632 20.2479 19.9999 20.2479C23.7366 20.2479 27.3764 21.1971 30.2499 22.9197C33.4843 24.8604 35.5421 27.6258 36.2014 30.9178C36.353 31.6722 36.1483 32.4182 35.6405 32.9646C35.4099 33.2134 35.1205 33.4128 34.7935 33.5483C34.4664 33.6838 34.1099 33.752 33.7499 33.7479Z" fill="white"/>
</svg>
