<svg width="27" height="27" viewBox="0 0 27 27" fill="none" xmlns="http://www.w3.org/2000/svg">
<path d="M26.5862 23.8902L20.4654 17.9961C21.939 16.1071 22.7345 13.8076 22.7318 11.445C22.7318 5.40995 17.633 0.5 11.3659 0.5C5.09879 0.5 0 5.40995 0 11.445C0 17.48 5.09879 22.3899 11.3659 22.3899C13.8195 22.3925 16.2073 21.6265 18.1691 20.2074L24.2898 26.1015C24.5997 26.3682 25.0038 26.5106 25.4192 26.4994C25.8346 26.4882 26.2298 26.3243 26.5237 26.0413C26.8175 25.7583 26.9877 25.3778 26.9994 24.9777C27.011 24.5777 26.8631 24.1886 26.5862 23.8902V23.8902ZM3.24741 11.445C3.24741 9.89874 3.72355 8.38724 4.61562 7.10161C5.5077 5.81597 6.77563 4.81394 8.2591 4.22223C9.74256 3.63052 11.3749 3.4757 12.9498 3.77735C14.5246 4.079 15.9712 4.82358 17.1066 5.91692C18.242 7.01026 19.0152 8.40327 19.3284 9.91978C19.6417 11.4363 19.4809 13.0082 18.8664 14.4367C18.252 15.8652 17.2114 17.0862 15.8763 17.9452C14.5412 18.8043 12.9716 19.2628 11.3659 19.2628C9.21355 19.2603 7.15007 18.4358 5.62812 16.9703C4.10616 15.5047 3.24999 13.5176 3.24741 11.445V11.445Z" fill="white"/>
</svg>
