<svg width="86" height="22" viewBox="0 0 86 22" fill="none" xmlns="http://www.w3.org/2000/svg">
<rect x="11" width="64" height="22" rx="11" fill="#EB4335"/>
<path d="M35.7215 8.72656C35.6884 8.41643 35.5487 8.17495 35.3025 8.00213C35.0586 7.82931 34.7414 7.7429 34.3508 7.7429C34.0761 7.7429 33.8406 7.78433 33.6441 7.86719C33.4476 7.95005 33.2973 8.0625 33.1931 8.20455C33.0889 8.34659 33.0357 8.50876 33.0333 8.69105C33.0333 8.84257 33.0676 8.97396 33.1363 9.08523C33.2073 9.1965 33.3032 9.29119 33.4239 9.36932C33.5447 9.44508 33.6784 9.509 33.8252 9.56108C33.972 9.61316 34.1199 9.65696 34.2691 9.69247L34.9509 9.86293C35.2255 9.92685 35.4895 10.0133 35.7428 10.1222C35.9985 10.2311 36.2269 10.3684 36.4282 10.5341C36.6318 10.6998 36.7928 10.8999 36.9111 11.1342C37.0295 11.3686 37.0887 11.6432 37.0887 11.9581C37.0887 12.3842 36.9798 12.7595 36.762 13.0838C36.5442 13.4058 36.2293 13.6579 35.8174 13.8402C35.4078 14.0201 34.9118 14.1101 34.3295 14.1101C33.7636 14.1101 33.2724 14.0225 32.8557 13.8473C32.4414 13.6721 32.1171 13.4164 31.8827 13.0803C31.6507 12.7441 31.5252 12.3345 31.5063 11.8516H32.8025C32.8214 12.1049 32.8995 12.3156 33.0368 12.4837C33.1742 12.6518 33.3529 12.7772 33.5731 12.8601C33.7956 12.9429 34.0442 12.9844 34.3188 12.9844C34.6053 12.9844 34.8562 12.9418 35.0716 12.8565C35.2894 12.7689 35.4599 12.6482 35.583 12.4943C35.7061 12.3381 35.7689 12.1558 35.7712 11.9474C35.7689 11.758 35.7132 11.6018 35.6043 11.4787C35.4954 11.3532 35.3427 11.2491 35.1462 11.1662C34.9521 11.081 34.7248 11.0052 34.4644 10.9389L33.637 10.7259C33.038 10.572 32.5645 10.3388 32.2165 10.0263C31.8709 9.71141 31.6981 9.29356 31.6981 8.77273C31.6981 8.34422 31.8141 7.96899 32.0461 7.64702C32.2805 7.32505 32.5989 7.07528 33.0013 6.89773C33.4038 6.7178 33.8595 6.62784 34.3685 6.62784C34.8846 6.62784 35.3368 6.7178 35.7251 6.89773C36.1157 7.07528 36.4223 7.32268 36.6448 7.63991C36.8673 7.95478 36.9822 8.317 36.9893 8.72656H35.7215ZM38.2632 14V6.72727H42.9933V7.83168H39.5807V9.80611H42.7483V10.9105H39.5807V12.8956H43.0218V14H38.2632ZM44.3374 14V6.72727H45.6549V12.8956H48.858V14H44.3374ZM50.0015 14V6.72727H51.319V12.8956H54.5221V14H50.0015Z" fill="white"/>
</svg>
