<svg width="17" height="15" viewBox="0 0 17 15" fill="none" xmlns="http://www.w3.org/2000/svg">
<g clip-path="url(#clip0_428_270)">
<path d="M16.9169 7.32328L8.70028 0.0733005C8.58948 -0.0244335 8.41042 -0.0244335 8.29965 0.0733005L0.0830075 7.32328C0.0297499 7.37004 0 7.43379 0 7.50003V14.75C0 14.851 0.0691286 14.9423 0.174814 14.981C0.280764 15.0195 0.402321 14.9983 0.483635 14.9268L8.49996 7.85352L16.5163 14.9268C16.5704 14.9745 16.6429 15 16.7166 15C16.7532 15 16.79 14.9938 16.8251 14.981C16.9311 14.9423 16.9999 14.851 16.9999 14.75V7.50003C16.9999 7.43379 16.9702 7.37004 16.9169 7.32328Z" fill="#0E461D"/>
</g>
<defs>
<clipPath id="clip0_428_270">
<rect width="17" height="15" fill="white"/>
</clipPath>
</defs>
</svg>
