<svg width="203" height="22" viewBox="0 0 203 22" fill="none" xmlns="http://www.w3.org/2000/svg">
<rect x="55" width="92" height="22" rx="11" fill="#686868" fill-opacity="0.62"/>
<path d="M71.5302 6.72727L73.4229 12.4517H73.4975L75.3867 6.72727H76.8356L74.2717 14H72.6452L70.0849 6.72727H71.5302ZM79.111 6.72727V14H77.7935V6.72727H79.111ZM80.5376 14V6.72727H85.2678V7.83168H81.8551V9.80611H85.0227V10.9105H81.8551V12.8956H85.2962V14H80.5376ZM88.1424 14L86.0898 6.72727H87.5067L88.8171 12.0717H88.8846L90.2837 6.72727H91.5728L92.9755 12.0753H93.0394L94.3498 6.72727H95.7667L93.7141 14H92.4144L90.9585 8.89702H90.9016L89.4421 14H88.1424ZM103.113 8.72656C103.08 8.41643 102.94 8.17495 102.694 8.00213C102.45 7.82931 102.133 7.7429 101.742 7.7429C101.468 7.7429 101.232 7.78433 101.036 7.86719C100.839 7.95005 100.689 8.0625 100.585 8.20455C100.481 8.34659 100.427 8.50876 100.425 8.69105C100.425 8.84257 100.459 8.97396 100.528 9.08523C100.599 9.1965 100.695 9.29119 100.816 9.36932C100.936 9.44508 101.07 9.509 101.217 9.56108C101.364 9.61316 101.512 9.65696 101.661 9.69247L102.343 9.86293C102.617 9.92685 102.881 10.0133 103.134 10.1222C103.39 10.2311 103.619 10.3684 103.82 10.5341C104.023 10.6998 104.184 10.8999 104.303 11.1342C104.421 11.3686 104.48 11.6432 104.48 11.9581C104.48 12.3842 104.371 12.7595 104.154 13.0838C103.936 13.4058 103.621 13.6579 103.209 13.8402C102.799 14.0201 102.303 14.1101 101.721 14.1101C101.155 14.1101 100.664 14.0225 100.247 13.8473C99.833 13.6721 99.5087 13.4164 99.2743 13.0803C99.0423 12.7441 98.9168 12.3345 98.8979 11.8516H100.194C100.213 12.1049 100.291 12.3156 100.428 12.4837C100.566 12.6518 100.744 12.7772 100.965 12.8601C101.187 12.9429 101.436 12.9844 101.71 12.9844C101.997 12.9844 102.248 12.9418 102.463 12.8565C102.681 12.7689 102.852 12.6482 102.975 12.4943C103.098 12.3381 103.16 12.1558 103.163 11.9474C103.16 11.758 103.105 11.6018 102.996 11.4787C102.887 11.3532 102.734 11.2491 102.538 11.1662C102.344 11.081 102.116 11.0052 101.856 10.9389L101.029 10.7259C100.43 10.572 99.9561 10.3388 99.6081 10.0263C99.2625 9.71141 99.0897 9.29356 99.0897 8.77273C99.0897 8.34422 99.2057 7.96899 99.4377 7.64702C99.6721 7.32505 99.9905 7.07528 100.393 6.89773C100.795 6.7178 101.251 6.62784 101.76 6.62784C102.276 6.62784 102.728 6.7178 103.117 6.89773C103.507 7.07528 103.814 7.32268 104.036 7.63991C104.259 7.95478 104.374 8.317 104.381 8.72656H103.113ZM105.335 7.83168V6.72727H111.138V7.83168H108.89V14H107.583V7.83168H105.335ZM118.433 10.3636C118.433 11.1473 118.286 11.8184 117.992 12.3771C117.701 12.9335 117.303 13.3596 116.799 13.6555C116.297 13.9515 115.728 14.0994 115.091 14.0994C114.454 14.0994 113.884 13.9515 113.379 13.6555C112.878 13.3572 112.48 12.9299 112.186 12.3736C111.895 11.8149 111.749 11.1449 111.749 10.3636C111.749 9.58002 111.895 8.91004 112.186 8.35369C112.48 7.79498 112.878 7.36766 113.379 7.07173C113.884 6.7758 114.454 6.62784 115.091 6.62784C115.728 6.62784 116.297 6.7758 116.799 7.07173C117.303 7.36766 117.701 7.79498 117.992 8.35369C118.286 8.91004 118.433 9.58002 118.433 10.3636ZM117.108 10.3636C117.108 9.81203 117.022 9.34683 116.849 8.96804C116.678 8.58688 116.442 8.29924 116.139 8.10511C115.836 7.90862 115.486 7.81037 115.091 7.81037C114.696 7.81037 114.347 7.90862 114.044 8.10511C113.74 8.29924 113.503 8.58688 113.33 8.96804C113.159 9.34683 113.074 9.81203 113.074 10.3636C113.074 10.9152 113.159 11.3816 113.33 11.7628C113.503 12.1416 113.74 12.4292 114.044 12.6257C114.347 12.8198 114.696 12.9169 115.091 12.9169C115.486 12.9169 115.836 12.8198 116.139 12.6257C116.442 12.4292 116.678 12.1416 116.849 11.7628C117.022 11.3816 117.108 10.9152 117.108 10.3636ZM125.903 9.18111H124.575C124.537 8.9633 124.468 8.77036 124.366 8.60227C124.264 8.43182 124.137 8.28741 123.986 8.16903C123.834 8.05066 123.661 7.96188 123.467 7.9027C123.276 7.84115 123.068 7.81037 122.846 7.81037C122.451 7.81037 122.1 7.9098 121.795 8.10866C121.489 8.30516 121.25 8.59399 121.077 8.97514C120.905 9.35393 120.818 9.81676 120.818 10.3636C120.818 10.92 120.905 11.3887 121.077 11.7699C121.253 12.1487 121.492 12.4351 121.795 12.6293C122.1 12.821 122.449 12.9169 122.842 12.9169C123.06 12.9169 123.264 12.8885 123.453 12.8317C123.645 12.7725 123.817 12.6861 123.968 12.5724C124.122 12.4588 124.251 12.3191 124.355 12.1534C124.462 11.9877 124.535 11.7983 124.575 11.5852L125.903 11.5923C125.854 11.938 125.746 12.2623 125.58 12.5653C125.417 12.8684 125.203 13.1359 124.938 13.3679C124.672 13.5975 124.362 13.7775 124.007 13.9077C123.652 14.0355 123.258 14.0994 122.825 14.0994C122.185 14.0994 121.615 13.9515 121.113 13.6555C120.611 13.3596 120.216 12.9323 119.927 12.3736C119.638 11.8149 119.494 11.1449 119.494 10.3636C119.494 9.58002 119.639 8.91004 119.93 8.35369C120.222 7.79498 120.618 7.36766 121.12 7.07173C121.622 6.7758 122.19 6.62784 122.825 6.62784C123.229 6.62784 123.606 6.68466 123.954 6.7983C124.302 6.91193 124.612 7.07884 124.884 7.29901C125.156 7.51681 125.38 7.78433 125.555 8.10156C125.733 8.41643 125.849 8.77628 125.903 9.18111ZM127.11 14V6.72727H128.427V10.0689H128.516L131.354 6.72727H132.962L130.15 9.99077L132.987 14H131.403L129.233 10.8821L128.427 11.8338V14H127.11Z" fill="white"/>
</svg>
